<?xml version="1.0" encoding="UTF-8" standalone="no"?>
<!DOCTYPE svg PUBLIC "-//W3C//DTD SVG 1.1//EN"
 "http://www.w3.org/Graphics/SVG/1.1/DTD/svg11.dtd">
<!-- Generated by graphviz version 2.43.0 (0)
 -->
<!-- Title: G Pages: 1 -->
<svg width="2914pt" height="402pt"
 viewBox="0.00 0.00 2914.00 401.96" xmlns="http://www.w3.org/2000/svg" xmlns:xlink="http://www.w3.org/1999/xlink">
<g id="graph0" class="graph" transform="scale(1 1) rotate(0) translate(4 397.96)">
<title>G</title>
<polygon fill="white" stroke="transparent" points="-4,4 -4,-397.96 2910,-397.96 2910,4 -4,4"/>
<g id="clust1" class="cluster">
<title>cluster_G</title>
<path fill="#808080" fill-opacity="0.094118" stroke="black" d="M20,-8C20,-8 2886,-8 2886,-8 2892,-8 2898,-14 2898,-20 2898,-20 2898,-373.96 2898,-373.96 2898,-379.96 2892,-385.96 2886,-385.96 2886,-385.96 20,-385.96 20,-385.96 14,-385.96 8,-379.96 8,-373.96 8,-373.96 8,-20 8,-20 8,-14 14,-8 20,-8"/>
</g>
<g id="clust2" class="cluster">
<title>cluster_src__exam__athena__service</title>
<path fill="#808080" fill-opacity="0.094118" stroke="black" d="M2450,-285.22C2450,-285.22 2878,-285.22 2878,-285.22 2884,-285.22 2890,-291.22 2890,-297.22 2890,-297.22 2890,-365.96 2890,-365.96 2890,-371.96 2884,-377.96 2878,-377.96 2878,-377.96 2450,-377.96 2450,-377.96 2444,-377.96 2438,-371.96 2438,-365.96 2438,-365.96 2438,-297.22 2438,-297.22 2438,-291.22 2444,-285.22 2450,-285.22"/>
<text text-anchor="middle" x="2664" y="-362.76" font-family="Times,serif" font-size="14.00">src.exam.athena.service</text>
</g>
<g id="clust3" class="cluster">
<title>cluster_src__exam__athena__service__EmployeeService</title>
<path fill="#808080" fill-opacity="0.094118" stroke="black" d="M282,-16C282,-16 2418,-16 2418,-16 2424,-16 2430,-22 2430,-28 2430,-28 2430,-365.96 2430,-365.96 2430,-371.96 2424,-377.96 2418,-377.96 2418,-377.96 282,-377.96 282,-377.96 276,-377.96 270,-371.96 270,-365.96 270,-365.96 270,-28 270,-28 270,-22 276,-16 282,-16"/>
<text text-anchor="middle" x="1350" y="-362.76" font-family="Times,serif" font-size="14.00">src.exam.athena.service.EmployeeService</text>
</g>
<!-- src__exam__athena__service -->
<g id="node1" class="node">
<title>src__exam__athena__service</title>
<ellipse fill="#ffffff" fill-opacity="0.698039" stroke="black" cx="139" cy="-320.09" rx="123.48" ry="18"/>
<text text-anchor="middle" x="139" y="-316.39" font-family="Times,serif" font-size="14.00" fill="#000000">src.exam.athena.service</text>
</g>
<!-- src__exam__athena__service__EmployeeService -->
<g id="node2" class="node">
<title>src__exam__athena__service__EmployeeService</title>
<ellipse fill="#ff3232" fill-opacity="0.698039" stroke="black" cx="2664" cy="-320.09" rx="218.49" ry="26.74"/>
<text text-anchor="middle" x="2664" y="-323.89" font-family="Times,serif" font-size="14.00" fill="#000000">EmployeeService</text>
<text text-anchor="middle" x="2664" y="-308.89" font-family="Times,serif" font-size="14.00" fill="#000000">(./src/exam/athena/service/__init__.py:16)</text>
</g>
<!-- src__exam__athena__service__EmployeeService____init__ -->
<g id="node3" class="node">
<title>src__exam__athena__service__EmployeeService____init__</title>
<ellipse fill="#ff0000" fill-opacity="0.698039" stroke="black" cx="1564" cy="-50.87" rx="218.49" ry="26.74"/>
<text text-anchor="middle" x="1564" y="-54.67" font-family="Times,serif" font-size="14.00" fill="#000000">__init__</text>
<text text-anchor="middle" x="1564" y="-39.67" font-family="Times,serif" font-size="14.00" fill="#000000">(./src/exam/athena/service/__init__.py:18)</text>
</g>
<!-- src__exam__athena__service__EmployeeService____print_hierarchy_recursive -->
<g id="node4" class="node">
<title>src__exam__athena__service__EmployeeService____print_hierarchy_recursive</title>
<ellipse fill="#ff0000" fill-opacity="0.698039" stroke="black" cx="2159" cy="-140.61" rx="224.72" ry="26.74"/>
<text text-anchor="middle" x="2159" y="-144.41" font-family="Times,serif" font-size="14.00" fill="#000000">__print_hierarchy_recursive</text>
<text text-anchor="middle" x="2159" y="-129.41" font-family="Times,serif" font-size="14.00" fill="#000000">(./src/exam/athena/service/__init__.py:124)</text>
</g>
<!-- src__exam__athena__service__EmployeeService____print_hierarchy_recursive&#45;&gt;src__exam__athena__service__EmployeeService____init__ -->
<g id="edge11" class="edge">
<title>src__exam__athena__service__EmployeeService____print_hierarchy_recursive&#45;&gt;src__exam__athena__service__EmployeeService____init__</title>
<path fill="none" stroke="#000000" d="M2021.37,-119.32C1928.13,-105.57 1805.09,-87.42 1710.11,-73.42"/>
<polygon fill="#000000" stroke="#000000" points="1710.54,-69.94 1700.14,-71.95 1709.52,-76.87 1710.54,-69.94"/>
</g>
<!-- src__exam__athena__service__EmployeeService____print_hierarchy_recursive&#45;&gt;src__exam__athena__service__EmployeeService____print_hierarchy_recursive -->
<g id="edge10" class="edge">
<title>src__exam__athena__service__EmployeeService____print_hierarchy_recursive&#45;&gt;src__exam__athena__service__EmployeeService____print_hierarchy_recursive</title>
<path fill="none" stroke="#000000" d="M2341.17,-156.38C2376.66,-154.55 2401.86,-149.29 2401.86,-140.61 2401.86,-132.78 2381.34,-127.73 2351.26,-125.48"/>
<polygon fill="#000000" stroke="#000000" points="2351.37,-121.98 2341.17,-124.84 2350.93,-128.97 2351.37,-121.98"/>
</g>
<!-- src__exam__athena__service__EmployeeService__execute -->
<g id="node5" class="node">
<title>src__exam__athena__service__EmployeeService__execute</title>
<ellipse fill="#ff0000" fill-opacity="0.698039" stroke="black" cx="1201" cy="-320.09" rx="224.72" ry="26.74"/>
<text text-anchor="middle" x="1201" y="-323.89" font-family="Times,serif" font-size="14.00" fill="#000000">execute</text>
<text text-anchor="middle" x="1201" y="-308.89" font-family="Times,serif" font-size="14.00" fill="#000000">(./src/exam/athena/service/__init__.py:149)</text>
</g>
<!-- src__exam__athena__service__EmployeeService__get_toggle -->
<g id="node6" class="node">
<title>src__exam__athena__service__EmployeeService__get_toggle</title>
<ellipse fill="#ff0000" fill-opacity="0.698039" stroke="black" cx="733" cy="-140.61" rx="218.49" ry="26.74"/>
<text text-anchor="middle" x="733" y="-144.41" font-family="Times,serif" font-size="14.00" fill="#000000">get_toggle</text>
<text text-anchor="middle" x="733" y="-129.41" font-family="Times,serif" font-size="14.00" fill="#000000">(./src/exam/athena/service/__init__.py:25)</text>
</g>
<!-- src__exam__athena__service__EmployeeService__execute&#45;&gt;src__exam__athena__service__EmployeeService__get_toggle -->
<g id="edge13" class="edge">
<title>src__exam__athena__service__EmployeeService__execute&#45;&gt;src__exam__athena__service__EmployeeService__get_toggle</title>
<path fill="none" stroke="#000000" d="M1207.14,-292.84C1211.56,-266.63 1213.38,-226.96 1191,-203.48 1185.74,-197.96 1024.92,-177.14 895.33,-161.16"/>
<polygon fill="#000000" stroke="#000000" points="895.62,-157.67 885.27,-159.93 894.77,-164.62 895.62,-157.67"/>
</g>
<!-- src__exam__athena__service__EmployeeService__get_total_salary -->
<g id="node7" class="node">
<title>src__exam__athena__service__EmployeeService__get_total_salary</title>
<ellipse fill="#ff0000" fill-opacity="0.698039" stroke="black" cx="957" cy="-230.35" rx="224.72" ry="26.74"/>
<text text-anchor="middle" x="957" y="-234.15" font-family="Times,serif" font-size="14.00" fill="#000000">get_total_salary</text>
<text text-anchor="middle" x="957" y="-219.15" font-family="Times,serif" font-size="14.00" fill="#000000">(./src/exam/athena/service/__init__.py:136)</text>
</g>
<!-- src__exam__athena__service__EmployeeService__execute&#45;&gt;src__exam__athena__service__EmployeeService__get_total_salary -->
<g id="edge16" class="edge">
<title>src__exam__athena__service__EmployeeService__execute&#45;&gt;src__exam__athena__service__EmployeeService__get_total_salary</title>
<path fill="none" stroke="#000000" d="M1132.38,-294.42C1102.11,-283.53 1066.37,-270.68 1035.08,-259.43"/>
<polygon fill="#000000" stroke="#000000" points="1036.12,-256.08 1025.52,-255.99 1033.75,-262.67 1036.12,-256.08"/>
</g>
<!-- src__exam__athena__service__EmployeeService__print_hierarchy -->
<g id="node8" class="node">
<title>src__exam__athena__service__EmployeeService__print_hierarchy</title>
<ellipse fill="#ff0000" fill-opacity="0.698039" stroke="black" cx="496" cy="-230.35" rx="218.49" ry="26.74"/>
<text text-anchor="middle" x="496" y="-234.15" font-family="Times,serif" font-size="14.00" fill="#000000">print_hierarchy</text>
<text text-anchor="middle" x="496" y="-219.15" font-family="Times,serif" font-size="14.00" fill="#000000">(./src/exam/athena/service/__init__.py:88)</text>
</g>
<!-- src__exam__athena__service__EmployeeService__execute&#45;&gt;src__exam__athena__service__EmployeeService__print_hierarchy -->
<g id="edge12" class="edge">
<title>src__exam__athena__service__EmployeeService__execute&#45;&gt;src__exam__athena__service__EmployeeService__print_hierarchy</title>
<path fill="none" stroke="#000000" d="M1067,-298.47C1035.85,-293.9 1002.79,-289.23 972,-285.22 861.57,-270.85 833.66,-269.75 723,-257.22 703.36,-255 682.75,-252.66 662.32,-250.33"/>
<polygon fill="#000000" stroke="#000000" points="662.63,-246.85 652.3,-249.19 661.84,-253.8 662.63,-246.85"/>
</g>
<!-- src__exam__athena__service__EmployeeService__print_hierarchy_recursive -->
<g id="node9" class="node">
<title>src__exam__athena__service__EmployeeService__print_hierarchy_recursive</title>
<ellipse fill="#ff0000" fill-opacity="0.698039" stroke="black" cx="2159" cy="-230.35" rx="224.72" ry="26.74"/>
<text text-anchor="middle" x="2159" y="-234.15" font-family="Times,serif" font-size="14.00" fill="#000000">print_hierarchy_recursive</text>
<text text-anchor="middle" x="2159" y="-219.15" font-family="Times,serif" font-size="14.00" fill="#000000">(./src/exam/athena/service/__init__.py:109)</text>
</g>
<!-- src__exam__athena__service__EmployeeService__execute&#45;&gt;src__exam__athena__service__EmployeeService__print_hierarchy_recursive -->
<g id="edge14" class="edge">
<title>src__exam__athena__service__EmployeeService__execute&#45;&gt;src__exam__athena__service__EmployeeService__print_hierarchy_recursive</title>
<path fill="none" stroke="#000000" d="M1375.6,-303.1C1545.14,-287.57 1801.56,-264.09 1974.42,-248.26"/>
<polygon fill="#000000" stroke="#000000" points="1974.75,-251.74 1984.39,-247.34 1974.11,-244.77 1974.75,-251.74"/>
</g>
<!-- src__exam__athena__service__EmployeeService__set_employee_hierarchy -->
<g id="node10" class="node">
<title>src__exam__athena__service__EmployeeService__set_employee_hierarchy</title>
<ellipse fill="#ff0000" fill-opacity="0.698039" stroke="black" cx="1438" cy="-230.35" rx="218.49" ry="26.74"/>
<text text-anchor="middle" x="1438" y="-234.15" font-family="Times,serif" font-size="14.00" fill="#000000">set_employee_hierarchy</text>
<text text-anchor="middle" x="1438" y="-219.15" font-family="Times,serif" font-size="14.00" fill="#000000">(./src/exam/athena/service/__init__.py:58)</text>
</g>
<!-- src__exam__athena__service__EmployeeService__execute&#45;&gt;src__exam__athena__service__EmployeeService__set_employee_hierarchy -->
<g id="edge15" class="edge">
<title>src__exam__athena__service__EmployeeService__execute&#45;&gt;src__exam__athena__service__EmployeeService__set_employee_hierarchy</title>
<path fill="none" stroke="#000000" d="M1267.65,-294.42C1296.93,-283.58 1331.47,-270.79 1361.77,-259.57"/>
<polygon fill="#000000" stroke="#000000" points="1363.28,-262.75 1371.44,-255.99 1360.85,-256.18 1363.28,-262.75"/>
</g>
<!-- src__exam__athena__service__EmployeeService__print_hierarchy&#45;&gt;src__exam__athena__service__EmployeeService____init__ -->
<g id="edge7" class="edge">
<title>src__exam__athena__service__EmployeeService__print_hierarchy&#45;&gt;src__exam__athena__service__EmployeeService____init__</title>
<path fill="none" stroke="#000000" d="M489.59,-203.24C484.81,-176.75 482.6,-136.49 506,-113.74 535.48,-85.07 1039.79,-66.27 1341.34,-57.54"/>
<polygon fill="#000000" stroke="#000000" points="1341.64,-61.03 1351.53,-57.24 1341.44,-54.03 1341.64,-61.03"/>
</g>
<!-- src__exam__athena__service__EmployeeService__print_hierarchy_recursive&#45;&gt;src__exam__athena__service__EmployeeService____init__ -->
<g id="edge9" class="edge">
<title>src__exam__athena__service__EmployeeService__print_hierarchy_recursive&#45;&gt;src__exam__athena__service__EmployeeService____init__</title>
<path fill="none" stroke="#000000" d="M2303.02,-209.66C2351.18,-199.91 2396.37,-186.14 2411,-167.48 2425.74,-148.69 2427.26,-131.23 2411,-113.74 2369.53,-69.13 2028.66,-56.33 1792.21,-52.86"/>
<polygon fill="#000000" stroke="#000000" points="1792.14,-49.36 1782.09,-52.72 1792.04,-56.36 1792.14,-49.36"/>
</g>
<!-- src__exam__athena__service__EmployeeService__print_hierarchy_recursive&#45;&gt;src__exam__athena__service__EmployeeService____print_hierarchy_recursive -->
<g id="edge8" class="edge">
<title>src__exam__athena__service__EmployeeService__print_hierarchy_recursive&#45;&gt;src__exam__athena__service__EmployeeService____print_hierarchy_recursive</title>
<path fill="none" stroke="#000000" d="M2159,-203.03C2159,-195.06 2159,-186.17 2159,-177.68"/>
<polygon fill="#000000" stroke="#000000" points="2162.5,-177.61 2159,-167.61 2155.5,-177.61 2162.5,-177.61"/>
</g>
<!-- src__exam__athena__service__EmployeeService__set_employee_hierarchy&#45;&gt;src__exam__athena__service__EmployeeService____init__ -->
<g id="edge6" class="edge">
<title>src__exam__athena__service__EmployeeService__set_employee_hierarchy&#45;&gt;src__exam__athena__service__EmployeeService____init__</title>
<path fill="none" stroke="#000000" d="M1285.3,-211.1C1154.09,-195.06 985.15,-173.37 980,-167.48 964.28,-149.5 964.03,-131.5 980,-113.74 1005,-85.95 1193.02,-69.7 1349.07,-60.88"/>
<polygon fill="#000000" stroke="#000000" points="1349.51,-64.36 1359.3,-60.31 1349.12,-57.37 1349.51,-64.36"/>
</g>
<!-- src__exam__athena__service__EmployeeService__set_employee_hierarchy&#45;&gt;src__exam__athena__service__EmployeeService__get_toggle -->
<g id="edge4" class="edge">
<title>src__exam__athena__service__EmployeeService__set_employee_hierarchy&#45;&gt;src__exam__athena__service__EmployeeService__get_toggle</title>
<path fill="none" stroke="#000000" d="M1288.49,-210.74C1172.33,-196.29 1011.57,-176.28 892.87,-161.51"/>
<polygon fill="#000000" stroke="#000000" points="892.96,-157.99 882.6,-160.23 892.09,-164.94 892.96,-157.99"/>
</g>
<!-- src__exam__athena__service__EmployeeService__set_employee_level -->
<g id="node11" class="node">
<title>src__exam__athena__service__EmployeeService__set_employee_level</title>
<ellipse fill="#ff0000" fill-opacity="0.698039" stroke="black" cx="1207" cy="-140.61" rx="218.49" ry="26.74"/>
<text text-anchor="middle" x="1207" y="-144.41" font-family="Times,serif" font-size="14.00" fill="#000000">set_employee_level</text>
<text text-anchor="middle" x="1207" y="-129.41" font-family="Times,serif" font-size="14.00" fill="#000000">(./src/exam/athena/service/__init__.py:30)</text>
</g>
<!-- src__exam__athena__service__EmployeeService__set_employee_hierarchy&#45;&gt;src__exam__athena__service__EmployeeService__set_employee_level -->
<g id="edge5" class="edge">
<title>src__exam__athena__service__EmployeeService__set_employee_hierarchy&#45;&gt;src__exam__athena__service__EmployeeService__set_employee_level</title>
<path fill="none" stroke="#000000" d="M1373.04,-204.68C1344.62,-193.88 1311.12,-181.16 1281.68,-169.98"/>
<polygon fill="#000000" stroke="#000000" points="1282.87,-166.68 1272.27,-166.4 1280.38,-173.23 1282.87,-166.68"/>
</g>
<!-- src__exam__athena__service__EmployeeService__set_employee_level_cached -->
<g id="node12" class="node">
<title>src__exam__athena__service__EmployeeService__set_employee_level_cached</title>
<ellipse fill="#ff0000" fill-opacity="0.698039" stroke="black" cx="1680" cy="-140.61" rx="218.49" ry="26.74"/>
<text text-anchor="middle" x="1680" y="-144.41" font-family="Times,serif" font-size="14.00" fill="#000000">set_employee_level_cached</text>
<text text-anchor="middle" x="1680" y="-129.41" font-family="Times,serif" font-size="14.00" fill="#000000">(./src/exam/athena/service/__init__.py:48)</text>
</g>
<!-- src__exam__athena__service__EmployeeService__set_employee_hierarchy&#45;&gt;src__exam__athena__service__EmployeeService__set_employee_level_cached -->
<g id="edge3" class="edge">
<title>src__exam__athena__service__EmployeeService__set_employee_hierarchy&#45;&gt;src__exam__athena__service__EmployeeService__set_employee_level_cached</title>
<path fill="none" stroke="#000000" d="M1505.73,-204.79C1535.89,-193.86 1571.57,-180.92 1602.76,-169.61"/>
<polygon fill="#000000" stroke="#000000" points="1604.08,-172.86 1612.28,-166.16 1601.69,-166.28 1604.08,-172.86"/>
</g>
<!-- src__exam__athena__service__EmployeeService__set_employee_level&#45;&gt;src__exam__athena__service__EmployeeService__set_employee_level -->
<g id="edge1" class="edge">
<title>src__exam__athena__service__EmployeeService__set_employee_level&#45;&gt;src__exam__athena__service__EmployeeService__set_employee_level</title>
<path fill="none" stroke="#000000" d="M1383.88,-156.4C1418.71,-154.6 1443.5,-149.33 1443.5,-140.61 1443.5,-132.77 1423.49,-127.73 1394.17,-125.47"/>
<polygon fill="#000000" stroke="#000000" points="1394.08,-121.96 1383.88,-124.82 1393.64,-128.95 1394.08,-121.96"/>
</g>
<!-- src__exam__athena__service__EmployeeService__set_employee_level_cached&#45;&gt;src__exam__athena__service__EmployeeService__set_employee_level_cached -->
<g id="edge2" class="edge">
<title>src__exam__athena__service__EmployeeService__set_employee_level_cached&#45;&gt;src__exam__athena__service__EmployeeService__set_employee_level_cached</title>
<path fill="none" stroke="#000000" d="M1856.88,-156.4C1891.71,-154.6 1916.5,-149.33 1916.5,-140.61 1916.5,-132.77 1896.49,-127.73 1867.17,-125.47"/>
<polygon fill="#000000" stroke="#000000" points="1867.08,-121.96 1856.88,-124.82 1866.64,-128.95 1867.08,-121.96"/>
</g>
</g>
</svg>
